<?xml version="1.0" encoding="UTF-8"?>
<svg xmlns="http://www.w3.org/2000/svg" version="1.1" width="512px" height="512px"
     style="shape-rendering:geometricPrecision; text-rendering:geometricPrecision; image-rendering:optimizeQuality;
     fill-rule:evenodd; clip-rule:evenodd">
    <g>
        <path style="opacity:0.973" fill="#fff" d="M 315.5,15.5 C 332.503,15.3334 349.503,15.5001 366.5,16C
        375.758,18.2704 383.091,23.2704 388.5,31C 408.809,33.6654 423.976,43.8321 434,61.5C 436.066,66.3634
        437.732,71.3634 439,76.5C 439.5,91.1629 439.667,105.83 439.5,120.5C 449.374,122.693 456.541,128.36
        461,137.5C 468.043,160.748 460.209,176.415 437.5,184.5C 431.86,206.296 419.527,223.129 400.5,235C
        398.949,241.228 401.282,245.228 407.5,247C 421.833,247.333 436.167,247.667 450.5,248C 474.64,253.473
        489.473,268.307 495,292.5C 495.5,320.165 495.667,347.831 495.5,375.5C 490.167,375.5 484.833,375.5
        479.5,375.5C 479.5,364.833 479.5,354.167 479.5,343.5C 466.167,343.5 452.833,343.5 439.5,343.5C
        439.667,363.503 439.5,383.503 439,403.5C 438.626,404.416 438.126,405.25 437.5,406C 398.885,407.025
        360.218,408.025 321.5,409C 310.796,412.705 304.963,420.205 304,431.5C 303.501,436.823 303.334,442.156
        303.5,447.5C 346.168,447.667 388.835,447.5 431.5,447C 463.676,442.649 479.676,424.149 479.5,391.5C
        484.833,391.5 490.167,391.5 495.5,391.5C 497.837,413.327 491.171,431.827 475.5,447C 480.833,447.333
        486.167,447.667 491.5,448C 493.333,448.5 494.5,449.667 495,451.5C 495.667,464.833 495.667,478.167
        495,491.5C 494.5,493.333 493.333,494.5 491.5,495C 334.167,495.667 176.833,495.667 19.5,495C 17.6667,494.5
        16.5,493.333 16,491.5C 15.0358,477.406 15.3691,463.406 17,449.5C 17.7504,448.874 18.5838,448.374 19.5,448C
        37.5,447.667 55.5,447.333 73.5,447C 80.854,431.433 87.5207,415.599 93.5,399.5C 75.4969,399.667
        57.4969,399.5 39.5,399C 27,395.833 19.1667,388 16,375.5C 15.5,338.168 15.3333,300.835 15.5,263.5C
        20.8333,263.5 26.1667,263.5 31.5,263.5C 31.3333,298.168 31.5,332.835 32,367.5C 33.1667,376.667
        38.3333,381.833 47.5,383C 65.5093,383.833 83.5093,383.666 101.5,382.5C 107.879,367.192 114.546,352.025
        121.5,337C 132.74,335.854 144.074,335.354 155.5,335.5C 166.167,335.667 176.833,335.833 187.5,336C
        188.416,336.374 189.25,336.874 190,337.5C 191.52,341.375 191.854,345.375 191,349.5C 188.749,360.76
        186.249,371.927 183.5,383C 214.54,383.962 245.54,383.628 276.5,382C 283.053,379.399 286.553,374.566
        287,367.5C 287.667,319.5 287.667,271.5 287,223.5C 285.833,214.333 280.667,209.167 271.5,208C
        196.833,207.333 122.167,207.333 47.5,208C 40.4342,208.447 35.6008,211.947 33,218.5C 31.6411,228.109
        31.1411,237.776 31.5,247.5C 26.1667,247.5 20.8333,247.5 15.5,247.5C 15.3335,236.828 15.5002,226.161
        16,215.5C 19.1667,203 27,195.167 39.5,192C 119.5,191.333 199.5,191.333 279.5,192C 292,195.167 299.833,203
        303,215.5C 303.5,226.161 303.667,236.828 303.5,247.5C 307.273,247.737 310.94,247.237 314.5,246C 317.748,244.515
        318.748,242.182 317.5,239C 313.124,237.444 309.458,234.944 306.5,231.5C 309.603,226.948 312.936,222.614
        316.5,218.5C 341.648,234.657 366.981,235.157 392.5,220C 412.086,206.375 422.253,187.542 423,163.5C 423.5,153.506
        423.666,143.506 423.5,133.5C 405.808,130.288 391.975,121.288 382,106.5C 379.998,102.658 378.498,98.6582
        377.5,94.5C 362.406,101.924 346.739,108.091 330.5,113C 316.422,116.902 302.089,119.069 287.5,119.5C
        286.941,140.322 287.775,160.989 290,181.5C 284.88,183.24 279.713,184.907 274.5,186.5C 273.833,185.5
        273.167,184.5 272.5,183.5C 250.359,175.549 242.859,160.216 250,137.5C 254.536,128.476 261.702,122.643
        271.5,120C 267.5,119.667 263.5,119.333 259.5,119C 257.667,118.5 256.5,117.333 256,115.5C 255.333,102.167
        255.333,88.8333 256,75.5C 263.347,42.9864 283.181,22.9864 315.5,15.5 Z M 327.5,31.5 C 337.506,31.3335
        347.506,31.5002 357.5,32C 364.721,32.5431 370.555,35.7097 375,41.5C 375.667,52.5 375.667,63.5 375,74.5C
        343.406,94.1927 308.906,103.859 271.5,103.5C 271.223,100.552 271.556,97.7191 272.5,95C 301.402,91.6985
        328.735,83.3652 354.5,70C 358.567,67.6392 362.233,64.8059 365.5,61.5C 361.781,57.2833 357.948,53.2833
        354,49.5C 329.501,65.1772 302.668,74.5106 273.5,77.5C 273.827,72.6893 275.16,68.1893 277.5,64C 292.987,63.6691
        307.987,60.8358 322.5,55.5C 322.833,55.1667 323.167,54.8333 323.5,54.5C 320.984,49.4689 318.484,44.4689
        316,39.5C 308.448,42.6801 300.615,44.5135 292.5,45C 302.719,36.5497 314.386,32.0497 327.5,31.5 Z M 391.5,49.5
        C 411.157,54.4376 421.657,67.1043 423,87.5C 423.832,96.8511 423.665,106.184 422.5,115.5C 403.674,110.855
        393.508,98.8545 392,79.5C 391.5,69.5056 391.334,59.5056 391.5,49.5 Z M 270.5,138.5 C 271.657,146.99
        271.824,155.657 271,164.5C 262.514,155.98 262.347,147.313 270.5,138.5 Z M 439.5,138.5 C 445.853,142.891
        448.019,148.891 446,156.5C 444.77,159.732 442.77,162.399 440,164.5C 439.5,155.84 439.334,147.173 439.5,138.5 Z
        M 381.5,243.5 C 384.096,249.793 388.096,255.293 393.5,260C 376.021,281.059 355.687,284.392 332.5,270C
        329.462,267.297 326.795,264.297 324.5,261C 327,258.5 329.5,256 332,253.5C 333.233,250.583 334.733,247.916
        336.5,245.5C 338.444,246.189 340.444,246.689 342.5,247C 351.167,247.667 359.833,247.667 368.5,247C
        373.11,246.386 377.443,245.22 381.5,243.5 Z M 303.5,263.5 C 304.675,263.281 305.675,263.614 306.5,264.5C
        320.595,288.546 341.595,298.712 369.5,295C 387.92,290.953 401.92,280.787 411.5,264.5C 461.204,256.541
        483.87,277.541 479.5,327.5C 466.167,327.5 452.833,327.5 439.5,327.5C 439.5,319.5 439.5,311.5 439.5,303.5C
        434.167,303.5 428.833,303.5 423.5,303.5C 423.5,332.833 423.5,362.167 423.5,391.5C 388.498,391.333 353.498,391.5
        318.5,392C 309.7,394.317 302.2,398.817 296,405.5C 295.333,400.167 295.333,394.833 296,389.5C 299.388,385.391
        301.721,380.725 303,375.5C 303.5,338.168 303.667,300.835 303.5,263.5 Z M 133.5,351.5 C 146.5,351.5 159.5,351.5
        172.5,351.5C 166.151,383.563 159.484,415.563 152.5,447.5C 132.489,447.833 112.489,447.5 92.5,446.5C
        106.368,414.886 120.035,383.22 133.5,351.5 Z M 180.5,399.5 C 183.247,399.187 185.914,399.52 188.5,400.5C
        186.5,405.167 184.5,409.833 182.5,414.5C 180.579,415.641 178.579,415.808 176.5,415C 178.025,409.875
        179.358,404.709 180.5,399.5 Z M 206.5,399.5 C 221.848,399.167 237.181,399.501 252.5,400.5C 250.5,405.167
        248.5,409.833 246.5,414.5C 242.878,415.325 239.211,415.825 235.5,416C 233.667,416.5 232.5,417.667 232,419.5C
        231.5,428.827 231.334,438.161 231.5,447.5C 226.167,447.5 220.833,447.5 215.5,447.5C 215.666,438.161
        215.5,428.827 215,419.5C 214.5,417.667 213.333,416.5 211.5,416C 207.833,415.667 204.167,415.333 200.5,415C
        203.192,410.089 205.192,404.923 206.5,399.5 Z M 270.5,399.5 C 273.5,399.5 276.5,399.5 279.5,399.5C
        279.5,404.833 279.5,410.167 279.5,415.5C 274.489,415.666 269.489,415.499 264.5,415C 267.192,410.089
        269.192,404.923 270.5,399.5 Z M 173.5,431.5 C 182.167,431.5 190.833,431.5 199.5,431.5C 199.5,436.833
        199.5,442.167 199.5,447.5C 189.833,447.5 180.167,447.5 170.5,447.5C 171.183,442.103 172.183,436.769
        173.5,431.5 Z M 247.5,431.5 C 260.833,431.5 274.167,431.5 287.5,431.5C 287.5,436.833 287.5,442.167
        287.5,447.5C 274.167,447.5 260.833,447.5 247.5,447.5C 247.5,442.167 247.5,436.833 247.5,431.5 Z M 31.5,463.5 C
        180.833,463.5 330.167,463.5 479.5,463.5C 479.5,468.833 479.5,474.167 479.5,479.5C 330.167,479.5 180.833,479.5
        31.5,479.5C 31.5,474.167 31.5,468.833 31.5,463.5 Z"/>
    </g>
    <g>
        <path style="opacity:0.936" fill="#fff"
              d="M 313.5,127.5 C 332.778,126.61 339.278,135.276 333,153.5C 326.055,160.069 318.222,161.236 309.5,157C
              302.931,150.055 301.764,142.222 306,133.5C 308.114,130.879 310.614,128.879 313.5,127.5 Z"/>
    </g>
    <g>
        <path style="opacity:0.936" fill="#fff"
              d="M 377.5,127.5 C 396.778,126.61 403.278,135.276 397,153.5C 390.055,160.069 382.222,161.236 373.5,157C
              366.931,150.055 365.764,142.222 370,133.5C 372.114,130.879 374.614,128.879 377.5,127.5 Z"/>
    </g>
    <g>
        <path style="opacity:1" fill="#fff"
              d="M 47.5,231.5 C 58.1667,231.5 68.8333,231.5 79.5,231.5C 79.5,236.833 79.5,242.167 79.5,247.5C
              68.8333,247.5 58.1667,247.5 47.5,247.5C 47.5,242.167 47.5,236.833 47.5,231.5 Z"/>
    </g>
    <g>
        <path style="opacity:1" fill="#fff"
              d="M 95.5,231.5 C 106.167,231.5 116.833,231.5 127.5,231.5C 127.5,236.833 127.5,242.167 127.5,247.5C
              116.833,247.5 106.167,247.5 95.5,247.5C 95.5,242.167 95.5,236.833 95.5,231.5 Z"/>
    </g>
    <g>
        <path style="opacity:1" fill="#fff"
              d="M 143.5,231.5 C 154.167,231.5 164.833,231.5 175.5,231.5C 175.5,236.833 175.5,242.167 175.5,247.5C
              164.833,247.5 154.167,247.5 143.5,247.5C 143.5,242.167 143.5,236.833 143.5,231.5 Z"/>
    </g>
    <g>
        <path style="opacity:1" fill="#fff"
              d="M 191.5,231.5 C 202.167,231.5 212.833,231.5 223.5,231.5C 223.5,236.833 223.5,242.167 223.5,247.5C
              212.833,247.5 202.167,247.5 191.5,247.5C 191.5,242.167 191.5,236.833 191.5,231.5 Z"/>
    </g>
    <g>
        <path style="opacity:1" fill="#fff"
              d="M 239.5,231.5 C 250.167,231.5 260.833,231.5 271.5,231.5C 271.5,236.833 271.5,242.167 271.5,247.5C
              260.833,247.5 250.167,247.5 239.5,247.5C 239.5,242.167 239.5,236.833 239.5,231.5 Z"/>
    </g>
    <g>
        <path style="opacity:0.919" fill="#fff"
              d="M 322.5,301.5 C 330.485,305.218 338.819,308.051 347.5,310C 362.706,312.214 377.206,310.047 391,303.5C
              393.5,308.5 396,313.5 398.5,318.5C 390.385,322.866 381.718,325.699 372.5,327C 352.435,329.796
              333.601,326.296 316,316.5C 315.333,315.5 315.333,314.5 316,313.5C 318.446,309.606 320.612,305.606
              322.5,301.5 Z"/>
    </g>
</svg>
