<?xml version="1.0" encoding="UTF-8"?>
<svg xmlns="http://www.w3.org/2000/svg" version="1.1" width="512px" height="512px"
     style="shape-rendering:geometricPrecision; text-rendering:geometricPrecision;
     image-rendering:optimizeQuality; fill-rule:evenodd; clip-rule:evenodd">
    <g>
        <path style="opacity:0.945" fill="#fff" d="M 144.5,15.5 C 191.658,11.5015 228.492,28.8348 255,67.5C
        268.957,91.6115 274.624,117.611 272,145.5C 279.526,155.756 281.526,167.089 278,179.5C 276.503,183.165
        274.503,186.498 272,189.5C 271.667,211.167 271.333,232.833 271,254.5C 268.056,275.687 259.889,294.52
        246.5,311C 249.817,311.498 253.15,311.665 256.5,311.5C 256.528,316.862 256.194,322.195 255.5,327.5C
        250.489,327.334 245.489,327.501 240.5,328C 245,333.833 249.5,339.667 254,345.5C 256,349.5 256,353.5
        254,357.5C 249.318,362.015 244.818,366.681 240.5,371.5C 245.132,373.21 249.632,375.21 254,377.5C
        255.483,380.702 255.817,384.036 255,387.5C 234.581,418.672 213.915,449.672 193,480.5C 191.612,485.372
        191.112,490.372 191.5,495.5C 186.167,495.5 180.833,495.5 175.5,495.5C 175.334,487.826 175.5,480.159
        176,472.5C 179.562,449.134 182.896,425.801 186,402.5C 179.586,414.329 172.92,425.996 166,437.5C 161.667,440.167
        157.333,440.167 153,437.5C 146.08,425.996 139.414,414.329 133,402.5C 136.104,425.801 139.438,449.134 143,472.5C
        143.5,480.159 143.666,487.826 143.5,495.5C 138.167,495.5 132.833,495.5 127.5,495.5C 127.888,490.372
        127.388,485.372 126,480.5C 105.085,449.672 84.4186,418.672 64,387.5C 63.1834,384.036 63.5167,380.702 65,377.5C
        69.3676,375.21 73.8676,373.21 78.5,371.5C 74.1819,366.681 69.6819,362.015 65,357.5C 63,353.5 63,349.5 65,345.5C
        69.1667,340 73.3333,334.5 77.5,329C 70.6797,328.603 64.3464,330.27 58.5,334C 54.0123,337.488 49.8456,341.321
        46,345.5C 41.0794,343.07 36.5794,340.07 32.5,336.5C 42.005,322.234 55.3383,313.734 72.5,311C 59.3158,294.804
        51.1492,276.304 48,255.5C 47.3333,207.833 47.3333,160.167 48,112.5C 51.0057,92.1314 58.6724,73.7981 71,57.5C
        72.1332,55.7888 73.6332,55.2888 75.5,56C 79.3559,59.0998 83.0226,62.4331 86.5,66C 71.8923,83.8164
        64.3923,104.316 64,127.5C 63.5001,142.163 63.3334,156.83 63.5,171.5C 118.111,153.441 160.278,119.775 190,70.5C
        191.109,65.9445 191.609,61.2778 191.5,56.5C 191.167,52.5 190.833,48.5 190.5,44.5C 155.879,49.6388
        126.879,64.9722 103.5,90.5C 99.1667,86.6667 94.8333,82.8333 90.5,79C 110.539,56.309 135.205,40.9756 164.5,33C
        144.872,31.1972 126.539,35.5305 109.5,46C 104.323,49.8477 99.1559,53.681 94,57.5C 89.6791,54.5124
        86.0124,50.8457 83,46.5C 82.3333,45.8333 82.3333,45.1667 83,44.5C 100.657,28.7545 121.157,19.0879 144.5,15.5 Z
        M 207.5,45.5 C 240.235,66.2896 256.235,96.2896 255.5,135.5C 251.774,135.823 248.107,135.489 244.5,134.5C
        232.333,112.833 220.167,91.1667 208,69.5C 207.5,61.5069 207.334,53.5069 207.5,45.5 Z M 198.5,88.5 C
        209.306,107.437 220.14,126.437 231,145.5C 231.667,160.833 231.667,176.167 231,191.5C 229.472,227.093
        212.639,252.259 180.5,267C 158.86,274.276 138.86,270.942 120.5,257C 96.6979,237.549 85.8646,212.382
        88,181.5C 93.5457,178.977 99.0457,176.311 104.5,173.5C 113.042,182.767 121.542,182.767 130,173.5C
        133.038,168.754 133.205,163.92 130.5,159C 158.134,140.201 180.8,116.701 198.5,88.5 Z M 247.5,152.5 C
        256.827,153.16 261.827,158.16 262.5,167.5C 261.827,176.84 256.827,181.84 247.5,182.5C 247.5,172.5
        247.5,162.5 247.5,152.5 Z M 70.5,187.5 C 70.435,226.038 86.6016,255.705 119,276.5C 119.667,286.833
        119.667,297.167 119,307.5C 118.5,309.333 117.333,310.5 115.5,311C 109.167,311.667 102.833,311.667
        96.5,311C 79.3577,295.554 68.8577,276.388 65,253.5C 63.6871,232.189 63.1871,210.855 63.5,189.5C
        66.1522,189.59 68.4855,188.924 70.5,187.5 Z M 247.5,199.5 C 250.167,199.5 252.833,199.5 255.5,199.5C
        255.783,217.191 255.283,234.858 254,252.5C 250.43,275.811 239.93,295.311 222.5,311C 216.167,311.667
        209.833,311.667 203.5,311C 201.667,310.5 200.5,309.333 200,307.5C 199.333,297.167 199.333,286.833
        200,276.5C 228.528,258.796 244.362,233.13 247.5,199.5 Z M 135.5,284.5 C 151.492,288.499 167.492,288.499
        183.5,284.5C 183.334,294.506 183.5,304.506 184,314.5C 186.191,321.195 190.691,325.195 197.5,326.5C
        196.513,336.241 195.013,345.908 193,355.5C 182.086,374.997 170.919,394.33 159.5,413.5C 148.081,394.33
        136.914,374.997 126,355.5C 123.987,345.908 122.487,336.241 121.5,326.5C 127.447,325.437 131.614,322.104
        134,316.5C 135.429,305.912 135.929,295.245 135.5,284.5 Z M 120.5,440.5 C 108.361,423.577 96.6943,406.244
        85.5,388.5C 90.8638,386.434 96.1971,384.267 101.5,382C 103.942,377.948 104.109,373.781 102,369.5C
        95.6519,363.319 89.4852,356.986 83.5,350.5C 88.4465,342.887 93.7798,335.553 99.5,328.5C 101.045,327.548
        102.712,327.215 104.5,327.5C 109.834,365.169 115.167,402.835 120.5,440.5 Z M 198.5,440.5 C 203.833,402.835
        209.166,365.169 214.5,327.5C 216.288,327.215 217.955,327.548 219.5,328.5C 225.22,335.553 230.553,342.887
        235.5,350.5C 229.515,356.986 223.348,363.319 217,369.5C 214.891,373.781 215.058,377.948 217.5,382C
        222.803,384.267 228.136,386.434 233.5,388.5C 222.306,406.244 210.639,423.577 198.5,440.5 Z"/>
    </g>
    <g>
        <path style="opacity:0.915" fill="#fff" d="M 170.5,60.5 C 171.496,60.4142 172.329,60.7476 173,61.5C 175,65.5
        177,69.5 179,73.5C 179.749,74.635 179.583,75.635 178.5,76.5C 146.436,93.0595 118.269,114.726 94,141.5C
        89.5918,137.714 85.0918,134.047 80.5,130.5C 106.472,101.864 136.472,78.5305 170.5,60.5 Z"/>
    </g>
    <g>
        <path style="opacity:0.927" fill="#fff" d="M 195.5,151.5 C 210.653,149.818 217.153,156.485 215,171.5C
        210.841,178.67 204.674,181.17 196.5,179C 188.173,175.507 185.34,169.34 188,160.5C 189.614,156.723
        192.114,153.723 195.5,151.5 Z"/>
    </g>
    <g>
        <path style="opacity:0.977" fill="#fff" d="M 304.5,167.5 C 314.833,167.5 325.167,167.5 335.5,167.5C
        335.5,172.833 335.5,178.167 335.5,183.5C 327.493,183.334 319.493,183.5 311.5,184C 304.653,185.866
        302.82,190.032 306,196.5C 306.75,197.126 307.584,197.626 308.5,198C 331.105,199.151 353.772,199.651
        376.5,199.5C 398.167,199.167 419.833,198.833 441.5,198.5C 440.167,193.833 440.167,189.167 441.5,184.5C
        411.507,183.5 381.507,183.167 351.5,183.5C 351.5,178.167 351.5,172.833 351.5,167.5C 387.502,167.333
        423.502,167.5 459.5,168C 462.516,169.529 463.849,172.029 463.5,175.5C 463.333,176.833 463.167,178.167
        463,179.5C 457.35,185.047 456.183,191.38 459.5,198.5C 467.479,199.332 475.479,199.832 483.5,200C
        484.416,200.374 485.25,200.874 486,201.5C 487.483,204.702 487.817,208.036 487,211.5C 479.667,219.5
        479.667,227.5 487,235.5C 487.817,238.964 487.483,242.298 486,245.5C 485.25,246.126 484.416,246.626
        483.5,247C 476.5,247.333 469.5,247.667 462.5,248C 463.833,253 463.833,258 462.5,263C 469.5,263.333
        476.5,263.667 483.5,264C 486.516,265.529 487.849,268.029 487.5,271.5C 487.485,273.634 486.985,275.634
        486,277.5C 478.088,286.347 476.422,296.347 481,307.5C 483,310.167 485,312.833 487,315.5C 487.667,318.167
        487.667,320.833 487,323.5C 486.5,325.333 485.333,326.5 483.5,327C 478.467,327.171 473.467,327.671 468.5,328.5C
        471.195,335.907 472.195,343.574 471.5,351.5C 466.112,350.653 460.779,349.487 455.5,348C 456.054,336.56
        450.721,329.893 439.5,328C 391.501,327.5 343.501,327.333 295.5,327.5C 298.167,338.167 298.167,348.833
        295.5,359.5C 343.501,359.667 391.501,359.5 439.5,359C 443.544,358.727 447.044,357.227 450,354.5C
        453.833,358.833 457.667,363.167 461.5,367.5C 452.828,374.664 442.828,377.498 431.5,376C 428.655,386.512
        422.988,395.178 414.5,402C 405.191,406.715 395.524,410.548 385.5,413.5C 385.167,414.167 384.833,414.833
        384.5,415.5C 387.314,442.123 389.648,468.79 391.5,495.5C 385.833,495.5 380.167,495.5 374.5,495.5C
        373.587,479.462 372.254,463.462 370.5,447.5C 358.833,447.5 347.167,447.5 335.5,447.5C 335.5,463.5 335.5,479.5
        335.5,495.5C 330.167,495.5 324.833,495.5 319.5,495.5C 319.667,474.164 319.5,452.831 319,431.5C 312.555,412.829
        305.722,394.329 298.5,376C 290.833,375.667 283.167,375.333 275.5,375C 272.484,373.471 271.151,370.971
        271.5,367.5C 271.515,365.366 272.015,363.366 273,361.5C 280.912,352.653 282.578,342.653 278,331.5C 276,328.833
        274,326.167 272,323.5C 271.333,320.833 271.333,318.167 272,315.5C 272.5,313.667 273.667,312.5 275.5,312C
        280.533,311.829 285.533,311.329 290.5,310.5C 286.242,299.818 286.575,289.318 291.5,279C 288.484,277.471
        287.151,274.971 287.5,271.5C 289.909,266.387 291.909,261.054 293.5,255.5C 293.024,250.881 291.191,246.881
        288,243.5C 287.333,240.833 287.333,238.167 288,235.5C 288.5,233.667 289.667,232.5 291.5,232C 298.5,231.667
        305.5,231.333 312.5,231C 311.167,226 311.167,221 312.5,216C 293.497,213.992 285.331,203.492 288,184.5C
        291.019,176.316 296.519,170.649 304.5,167.5 Z M 335.5,215.5 C 378.838,215.167 422.172,215.5 465.5,216.5C
        464.167,221.167 464.167,225.833 465.5,230.5C 422.171,231.667 378.837,231.833 335.5,231C 328.653,229.134
        326.82,224.968 330,218.5C 331.876,217.391 333.709,216.391 335.5,215.5 Z M 309.5,247.5 C 352.835,247.333
        396.168,247.5 439.5,248C 446.347,249.866 448.18,254.032 445,260.5C 443.352,261.717 441.519,262.55 439.5,263C
        396.163,263.833 352.829,263.667 309.5,262.5C 310.778,257.501 310.778,252.501 309.5,247.5 Z M 319.5,279.5 C
        367.5,279.5 415.5,279.5 463.5,279.5C 460.833,290.167 460.833,300.833 463.5,311.5C 413.795,311.977
        364.128,311.477 314.5,310C 306.129,306.091 302.963,299.591 305,290.5C 307.821,284.023 312.655,280.356
        319.5,279.5 Z M 317.5,375.5 C 318.649,375.791 319.316,376.624 319.5,378C 319.333,378.833 319.167,379.667
        319,380.5C 317.991,378.975 317.491,377.308 317.5,375.5 Z M 335.5,375.5 C 361.502,375.333 387.502,375.5
        413.5,376C 411.276,381.557 407.609,385.89 402.5,389C 392.908,392.531 383.241,395.864 373.5,399C 360.838,399.5
        348.171,399.667 335.5,399.5C 335.5,391.5 335.5,383.5 335.5,375.5 Z M 335.5,415.5 C 346.167,415.5 356.833,415.5
        367.5,415.5C 367.959,420.734 368.626,425.9 369.5,431C 358.172,431.5 346.838,431.667 335.5,431.5C 335.5,426.167
         335.5,420.833 335.5,415.5 Z"/>
    </g>
    <g>
        <path style="opacity:0.988" fill="#fff" d="M 26.5,348.5 C 32.0758,349.913 37.4091,351.913 42.5,354.5C
        41.0978,358.711 40.2644,363.045 40,367.5C 39.5,410.165 39.3333,452.832 39.5,495.5C 34.1667,495.5
        28.8333,495.5 23.5,495.5C 23.3333,449.165 23.5,402.832 24,356.5C 24.5423,353.708 25.3756,351.042 26.5,348.5 Z"/>
    </g>
    <g>
        <path style="opacity:0.931" fill="#fff" d="M 65.5,412.5 C 70.5273,415.345 75.194,418.679 79.5,422.5C
        68.0516,444.642 70.5516,464.975 87,483.5C 87.4988,487.486 87.6655,491.486 87.5,495.5C 82.1667,495.5
        76.8333,495.5 71.5,495.5C 71.628,493.345 71.128,491.345 70,489.5C 57.3913,474.073 52.7247,456.406
        56,436.5C 57.8036,427.903 60.9703,419.903 65.5,412.5 Z"/>
    </g>
    <g>
        <path style="opacity:0.935" fill="#fff" d="M 252.5,412.5 C 258.462,420.442 262.295,429.442 264,439.5C
        272.46,458.082 280.627,476.748 288.5,495.5C 282.491,495.666 276.491,495.499 270.5,495C 266.872,487.576
        263.372,480.076 260,472.5C 257.093,478.644 253.426,484.311 249,489.5C 247.872,491.345 247.372,493.345
        247.5,495.5C 242.167,495.5 236.833,495.5 231.5,495.5C 231.334,491.486 231.501,487.486 232,483.5C 248.448,464.975
        250.948,444.642 239.5,422.5C 243.683,418.916 248.016,415.582 252.5,412.5 Z"/>
    </g>
</svg>
