<?xml version="1.0" encoding="UTF-8"?>
<svg xmlns="http://www.w3.org/2000/svg" version="1.1" width="512px" height="512px"
     style="shape-rendering:geometricPrecision; text-rendering:geometricPrecision; image-rendering:optimizeQuality;
     fill-rule:evenodd; clip-rule:evenodd">
    <g>
        <path style="opacity:0.94" fill="#fff" d="M 249.5,-0.5 C 253.5,-0.5 257.5,-0.5 261.5,-0.5C 308.566,15.1316
        355.899,30.2983 403.5,45C 408.739,46.4128 413.739,48.4128 418.5,51C 425.858,59.0649 426.191,67.3982 419.5,76C
        417.112,77.8605 414.446,79.1939 411.5,80C 396.172,82.6103 380.839,85.1103 365.5,87.5C 365.667,99.5046
        365.5,111.505 365,123.5C 364.07,126.362 362.403,128.695 360,130.5C 359.667,152.5 359.333,174.5 359,196.5C
        356.46,204.878 350.96,209.878 342.5,211.5C 340.196,236.781 329.029,257.114 309,272.5C 308.333,275.833
        308.333,279.167 309,282.5C 330.252,296.209 351.419,310.042 372.5,324C 384.429,327.865 396.429,331.532
        408.5,335C 436.496,346.669 452.996,367.502 458,397.5C 458.667,427.167 458.667,456.833 458,486.5C
        454.384,498.946 446.55,507.279 434.5,511.5C 315.167,511.5 195.833,511.5 76.5,511.5C 66.0268,507.866
        58.5268,500.866 54,490.5C 52.4425,480.894 52.1092,471.228 53,461.5C 56.8549,455.665 61.5216,454.998
        67,459.5C 68.27,467.397 68.9367,475.397 69,483.5C 71.4775,490.975 76.6442,495.142 84.5,496C 95.495,496.5
        106.495,496.667 117.5,496.5C 117.333,484.495 117.5,472.495 118,460.5C 119.529,457.484 122.029,456.151
        125.5,456.5C 129.177,456.336 131.677,458.003 133,461.5C 133.5,473.162 133.667,484.829 133.5,496.5C
        214.833,496.5 296.167,496.5 377.5,496.5C 377.333,484.829 377.5,473.162 378,461.5C 380.435,456.776
        384.269,455.276 389.5,457C 390.667,458.167 391.833,459.333 393,460.5C 393.5,472.495 393.667,484.495
        393.5,496.5C 404.505,496.667 415.505,496.5 426.5,496C 434.356,495.142 439.522,490.975 442,483.5C 442.667,455.5
        442.667,427.5 442,399.5C 438.098,376.607 425.598,360.441 404.5,351C 393.317,347.494 382.15,343.994 371,340.5C
        337.583,360.792 304.083,380.959 270.5,401C 265.779,404.027 260.779,406.527 255.5,408.5C 250.221,406.527
        245.221,404.027 240.5,401C 206.917,380.959 173.417,360.792 140,340.5C 128.861,343.99 117.694,347.49 106.5,351C
        87.7032,359.4 75.5366,373.566 70,393.5C 68.7888,406.459 68.1222,419.459 68,432.5C 64.1081,438.259
        59.4414,438.926 54,434.5C 52.8717,428.103 52.3717,421.603 52.5,415C 51.1574,379.39 66.1574,353.39 97.5,337C
        111.12,332.512 124.786,328.179 138.5,324C 159.667,310.167 180.833,296.333 202,282.5C 202.667,279.167
        202.667,275.833 202,272.5C 181.971,257.114 170.804,236.781 168.5,211.5C 159.415,210.527 153.915,205.527
        152,196.5C 151.667,174.5 151.333,152.5 151,130.5C 148.597,128.695 146.93,126.362 146,123.5C 145.5,111.505
        145.333,99.5046 145.5,87.5C 133.741,86.0147 122.074,84.0147 110.5,81.5C 109.167,93.1667 109.167,104.833
        110.5,116.5C 116.931,117.762 121.431,121.429 124,127.5C 124.333,136.167 124.667,144.833 125,153.5C 128.5,173.833
        132,194.167 135.5,214.5C 135.188,221.299 132.188,226.466 126.5,230C 110.592,231.636 94.5922,231.969 78.5,231C
        71.2298,227.987 67.2298,222.487 66.5,214.5C 70.1928,194.202 73.6928,173.869 77,153.5C 77.3333,144.833
        77.6667,136.167 78,127.5C 81.0057,120.75 86.1724,117.084 93.5,116.5C 93.8325,103.15 93.4992,89.8167 92.5,76.5C
        84.6099,68.0626 84.6099,59.5626 92.5,51C 96.2707,48.7813 100.271,47.1146 104.5,46C 153.101,30.965 201.434,15.465
        249.5,-0.5 Z M 252.5,15.5 C 258.979,16.2684 265.313,17.7684 271.5,20C 317.012,34.2822 362.345,48.9489 407.5,64C
        392.561,66.9899 377.561,69.6565 362.5,72C 354.452,72.4949 346.452,71.9949 338.5,70.5C 330.336,71.4892
        327.836,75.8226 331,83.5C 331.903,84.7014 333.069,85.5348 334.5,86C 339.4,86.7145 344.233,87.5478 349,88.5C
        349.5,98.1609 349.666,107.828 349.5,117.5C 286.833,117.5 224.167,117.5 161.5,117.5C 161.181,107.584
        161.514,97.7504 162.5,88C 189.814,84.5024 217.147,81.1691 244.5,78C 263.981,77.4479 283.314,78.9479
        302.5,82.5C 309.282,81.2821 311.782,77.2821 310,70.5C 309.5,68.6667 308.333,67.5 306.5,67C 285.671,63.0169
        264.671,61.3502 243.5,62C 213.842,65.5822 184.176,69.0822 154.5,72.5C 137.393,70.3156 120.393,67.4822 103.5,64C
        153.257,47.914 202.923,31.7474 252.5,15.5 Z M 93.5,132.5 C 98.5,132.5 103.5,132.5 108.5,132.5C 108.5,136.833
        108.5,141.167 108.5,145.5C 103.5,145.5 98.5,145.5 93.5,145.5C 93.5,141.167 93.5,136.833 93.5,132.5 Z M
        167.5,133.5 C 173.167,133.5 178.833,133.5 184.5,133.5C 184.666,139.176 184.499,144.843 184,150.5C
        183.226,152.939 181.726,154.773 179.5,156C 175.582,157.156 171.582,157.656 167.5,157.5C 167.5,149.5
        167.5,141.5 167.5,133.5 Z M 200.5,133.5 C 237.167,133.5 273.833,133.5 310.5,133.5C 309.92,142.331
        310.753,150.998 313,159.5C 320.04,170.693 330.207,175.027 343.5,172.5C 343.666,179.508 343.5,186.508
        343,193.5C 342.167,194.333 341.333,195.167 340.5,196C 335.688,195.823 331.855,197.656 329,201.5C
        326.428,232.698 311.262,255.198 283.5,269C 251.121,280.447 223.287,273.613 200,248.5C 189.871,234.452
        183.871,218.786 182,201.5C 179.145,197.656 175.312,195.823 170.5,196C 169.667,195.167 168.833,194.333
        168,193.5C 167.5,186.508 167.334,179.508 167.5,172.5C 180.793,175.027 190.96,170.693 198,159.5C 200.247,150.998
        201.08,142.331 200.5,133.5 Z M 326.5,133.5 C 332.167,133.5 337.833,133.5 343.5,133.5C 343.5,141.5 343.5,149.5
        343.5,157.5C 337.88,158.18 332.88,156.846 328.5,153.5C 328,152.5 327.5,151.5 327,150.5C 326.501,144.843
        326.334,139.176 326.5,133.5 Z M 91.5,161.5 C 97.8333,161.5 104.167,161.5 110.5,161.5C 112.961,179.263
        115.961,196.93 119.5,214.5C 118.975,215.192 118.308,215.692 117.5,216C 106.257,216.82 95.0902,216.653 84,215.5C
        85.9506,197.458 88.4506,179.458 91.5,161.5 Z M 218.5,282.5 C 243,293.152 267.5,293.152 292,282.5C
        292.585,296.065 291.085,309.398 287.5,322.5C 285.118,324.071 282.451,324.904 279.5,325C 261.062,327.341
        242.729,326.841 224.5,323.5C 222.775,320.072 221.608,316.405 221,312.5C 219.322,302.567 218.489,292.567
        218.5,282.5 Z M 201.5,301.5 C 202.693,301.97 203.36,302.97 203.5,304.5C 205.253,317.845 208.42,330.845
        213,343.5C 217.818,354.131 222.818,364.464 228,374.5C 204.414,359.956 180.581,345.789 156.5,332C 171.566,321.81
        186.566,311.644 201.5,301.5 Z M 307.5,301.5 C 323.451,311.148 339.117,321.314 354.5,332C 330.419,345.789
        306.586,359.956 283,374.5C 288.182,364.464 293.182,354.131 298,343.5C 303.063,329.917 306.229,315.917
        307.5,301.5 Z M 230.5,341.5 C 247.167,342.833 263.833,342.833 280.5,341.5C 273.976,356.882 265.642,371.215
        255.5,384.5C 245.358,371.215 237.024,356.882 230.5,341.5 Z"/>
    </g>
</svg>
