<?xml version="1.0" encoding="UTF-8"?>
<svg xmlns="http://www.w3.org/2000/svg" version="1.1" width="512px" height="512px"
     style="shape-rendering:geometricPrecision; text-rendering:geometricPrecision; image-rendering:optimizeQuality;
     fill-rule:evenodd; clip-rule:evenodd">

    <g>
        <path style="opacity:0.956" fill="#fff" d="M 248.5,15.5 C 297.557,11.4415 334.39,30.4415 359,72.5C
        364.833,83.8283 368.499,95.8283 370,108.5C 370.548,125.171 370.381,141.838 369.5,158.5C 369.176,170.402
        370.676,182.068 374,193.5C 380.488,208.63 385.155,224.297 388,240.5C 388.632,246.155 389.132,251.822
        389.5,257.5C 388.498,269.186 387.665,280.853 387,292.5C 392.806,300.443 397.306,309.11 400.5,318.5C
        426.745,312.955 453.411,308.122 480.5,304C 484.167,303.333 487.833,303.333 491.5,304C 493.333,304.5
        494.5,305.667 495,307.5C 495.99,356.25 495.657,404.917 494,453.5C 492.088,454.692 490.088,455.692
        488,456.5C 487.166,461.668 484.666,465.835 480.5,469C 471.638,471.534 462.638,473.534 453.5,475C 445.65,491.426
        432.65,498.093 414.5,495C 402.491,491.826 394.491,484.326 390.5,472.5C 374.668,472.165 359.168,469.832
        344,465.5C 343.5,475.494 343.334,485.494 343.5,495.5C 338.167,495.5 332.833,495.5 327.5,495.5C 327.5,484.5
        327.5,473.5 327.5,462.5C 314.664,460.366 301.997,457.533 289.5,454C 288.874,453.25 288.374,452.416 288,451.5C
        287.667,415.167 287.333,378.833 287,342.5C 281.333,352.833 275.667,363.167 270,373.5C 262.834,377.366 257.501,
        375.699 254,368.5C 239.754,341.673 225.254,315.007 210.5,288.5C 198.813,287.198 187.147,287.365 175.5,289C
        165.167,291.407 157,296.907 151,305.5C 145.448,317.271 140.448,329.271 136,341.5C 135.333,372.833
        135.333,404.167 136,435.5C 152.269,405.961 168.269,376.294 184,346.5C 187.333,343.167 190.667,339.833
        194,336.5C 197.952,340.907 201.785,345.407 205.5,350C 187,366.492 181.5,386.659 189,410.5C 191.577,416.66
        194.91,422.327 199,427.5C 199.5,450.164 199.667,472.831 199.5,495.5C 194.167,495.5 188.833,495.5 183.5,495.5C
        183.667,475.164 183.5,454.831 183,434.5C 177.085,426.67 172.752,418.003 170,408.5C 157.333,432.5 144.667,456.5
        132,480.5C 122.17,494.003 109.003,498.836 92.5,495C 74.2944,489.452 65.2944,477.118 65.5,458C 68.1387,425.199
        70.1387,392.365 71.5,359.5C 62.5717,360.161 53.905,358.995 45.5,356C 38.8333,352.667 32.1667,349.333 25.5,346C
        16.1045,337.587 12.7711,327.087 15.5,314.5C 15.6667,308.5 15.8333,302.5 16,296.5C 19.106,289.23 24.606,285.23
        32.5,284.5C 41.2445,287.369 49.9112,290.535 58.5,294C 66.1543,295.478 73.8209,295.644 81.5,294.5C
        74.7691,279.941 78.1025,268.441 91.5,260C 102.733,255.913 112.566,258.08 121,266.5C 126.243,277.221
        130.91,288.221 135,299.5C 137.533,296.148 139.366,292.481 140.5,288.5C 136.072,265.966 136.906,243.633
        143,221.5C 146.333,212.167 149.667,202.833 153,193.5C 154.846,186.935 156.18,180.269 157,173.5C 156.87,151.835
        156.87,130.169 157,108.5C 166.559,56.7748 197.059,25.7748 248.5,15.5 Z M 261.5,31.5 C 311.513,34.6838
        342.013,60.6838 353,109.5C 353.059,131.168 353.059,152.834 353,174.5C 353.818,181.926 355.152,189.259
        357,196.5C 361.94,209.652 366.273,222.985 370,236.5C 372.773,249.108 373.107,261.775 371,274.5C 370.751,275.624
        370.251,276.624 369.5,277.5C 364.46,274.813 359.126,272.98 353.5,272C 337.135,271.789 320.802,271.289
        304.5,270.5C 303.401,259.534 303.235,248.534 304,237.5C 325.671,224.486 338.671,205.486 343,180.5C 343.667,161.5
        343.667,142.5 343,123.5C 342.5,121.667 341.333,120.5 339.5,120C 300.84,113.997 266.84,98.3301 237.5,73C
        233.219,70.891 229.052,71.0577 225,73.5C 220.338,83.4992 214.671,92.8325 208,101.5C 200.548,109.627
        192.548,116.96 184,123.5C 183.333,142.5 183.333,161.5 184,180.5C 188.363,205.51 201.363,224.51 223,237.5C
        223.765,248.534 223.599,259.534 222.5,270.5C 206.198,271.289 189.865,271.789 173.5,272C 167.857,272.936
        162.524,274.77 157.5,277.5C 156.749,276.624 156.249,275.624 156,274.5C 154.07,261.786 154.404,249.119 157,236.5C
        160.727,222.985 165.06,209.652 170,196.5C 171.872,189.604 173.205,182.604 174,175.5C 173.961,153.501
        173.961,131.501 174,109.5C 184.547,62.4458 213.714,36.4458 261.5,31.5 Z M 233.5,93.5 C 253.554,108.364
        275.554,119.864 299.5,128C 308.631,131.1 317.964,133.267 327.5,134.5C 327.667,145.505 327.5,156.505 327,167.5C
        323.091,205.909 301.924,227.242 263.5,231.5C 230.018,228.684 209.185,211.018 201,178.5C 199.544,163.192
        199.21,147.859 200,132.5C 210,125.167 218.667,116.5 226,106.5C 229.029,102.438 231.529,98.1051 233.5,93.5 Z M
        239.5,244.5 C 255.167,248.474 270.834,248.474 286.5,244.5C 287.332,254.483 287.832,264.483 288,274.5C
        290.064,279.556 293.231,283.723 297.5,287C 294.76,292.479 291.76,297.813 288.5,303C 271.593,303.825
        254.759,303.658 238,302.5C 235.032,297.398 232.199,292.231 229.5,287C 233.769,283.723 236.936,279.556
        239,274.5C 239.5,264.506 239.666,254.506 239.5,244.5 Z M 100.5,274.5 C 103.617,274.642 106.117,275.976
        108,278.5C 111.943,287.386 115.61,296.386 119,305.5C 119.5,318.162 119.667,330.829 119.5,343.5C 99.1338,343.899
        78.8004,343.399 58.5,342C 49.257,339.295 40.757,335.128 33,329.5C 31.4575,320.896 31.1242,312.23 32,303.5C
        32.5613,302.978 33.228,302.645 34,302.5C 41.0293,306.599 48.5293,309.432 56.5,311C 71.5931,311.967
        86.5931,311.633 101.5,310C 103.429,306.744 103.929,303.244 103,299.5C 99.7943,293.927 97.2943,288.094 95.5,282C
        95.7815,278.556 97.4482,276.056 100.5,274.5 Z M 316.5,287.5 C 325.506,287.334 334.506,287.5 343.5,288C
        359.921,288.957 371.754,296.79 379,311.5C 380.314,314.089 380.981,316.756 381,319.5C 378.696,317.932
        376.196,316.765 373.5,316C 351.339,312.419 329.339,308.419 307.5,304C 310.906,298.686 313.906,293.186
        316.5,287.5 Z M 247.5,319.5 C 258.187,319.168 268.854,319.501 279.5,320.5C 274.167,329.833 268.833,339.167
        263.5,348.5C 257.888,338.94 252.555,329.273 247.5,319.5 Z M 303.5,321.5 C 324.487,324.998 345.487,328.498
        366.5,332C 372.823,333.325 377.489,336.825 380.5,342.5C 379.833,342.833 379.167,343.167 378.5,343.5C
        353.513,338.369 328.513,333.369 303.5,328.5C 303.5,326.167 303.5,323.833 303.5,321.5 Z M 476.5,321.5 C
        477.5,321.5 478.5,321.5 479.5,321.5C 479.5,323.833 479.5,326.167 479.5,328.5C 454.487,333.369 429.487,338.369
        404.5,343.5C 403.833,343.167 403.167,342.833 402.5,342.5C 405.511,336.825 410.177,333.325 416.5,332C
        436.693,328.802 456.693,325.302 476.5,321.5 Z M 303.5,345.5 C 324.753,350.084 346.087,354.417 367.5,358.5C
        367.667,390.168 367.5,421.835 367,453.5C 345.923,448.851 324.757,444.518 303.5,440.5C 303.5,408.833
        303.5,377.167 303.5,345.5 Z M 478.5,345.5 C 479.828,366.67 479.828,388.004 478.5,409.5C 473.016,407.488
        467.35,406.988 461.5,408C 453.5,409.333 445.5,410.667 437.5,412C 430.738,413.763 426.238,417.93 424,424.5C
        423.832,433.518 423.332,442.518 422.5,451.5C 420.291,452.106 418.124,452.773 416,453.5C 415.5,421.835
        415.333,390.168 415.5,358.5C 436.696,354.528 457.696,350.195 478.5,345.5 Z M 87.5,359.5 C 98.1667,359.5
        108.833,359.5 119.5,359.5C 119.5,364.833 119.5,370.167 119.5,375.5C 108.833,375.5 98.1667,375.5 87.5,375.5C
        87.5,370.167 87.5,364.833 87.5,359.5 Z M 383.5,359.5 C 388.833,359.5 394.167,359.5 399.5,359.5C 399.5,391.5
        399.5,423.5 399.5,455.5C 394.167,455.5 388.833,455.5 383.5,455.5C 383.5,423.5 383.5,391.5 383.5,359.5 Z M
        87.5,391.5 C 98.1667,391.5 108.833,391.5 119.5,391.5C 119.942,416.538 119.442,441.538 118,466.5C 111.944,478.609
        102.778,481.776 90.5,476C 86.8062,473.313 84.3062,469.813 83,465.5C 83.6566,440.795 85.1566,416.128 87.5,391.5
        Z M 463.5,424.5 C 466.394,424.042 468.894,424.709 471,426.5C 471.5,435.827 471.666,445.161 471.5,454.5C
        460.833,456.167 450.167,457.833 439.5,459.5C 439.192,449.447 439.525,439.447 440.5,429.5C 448.264,427.712
        455.93,426.045 463.5,424.5 Z M 423.5,468.5 C 425.996,471.134 428.996,473.3 432.5,475C 424.011,480.384
        416.345,479.384 409.5,472C 414.341,471.005 419.008,469.838 423.5,468.5 Z"/>
    </g>
    <g>
        <path style="opacity:0.931" fill="#fff" d="M 222.5,135.5 C 235.32,134.153 240.82,139.819 239,152.5C
        235.345,159.07 229.845,161.237 222.5,159C 215.93,155.345 213.763,149.845 216,142.5C 217.694,139.642
        219.861,137.309 222.5,135.5 Z"/>
    </g>
    <g>
        <path style="opacity:0.931" fill="#fff" d="M 294.5,135.5 C 307.32,134.153 312.82,139.819 311,152.5C
        307.345,159.07 301.845,161.237 294.5,159C 287.93,155.345 285.763,149.845 288,142.5C 289.694,139.642
        291.861,137.309 294.5,135.5 Z"/>
    </g>
</svg>
