<?xml version="1.0" encoding="UTF-8"?>
<!DOCTYPE svg PUBLIC "-//W3C//DTD SVG 1.1//EN" "http://www.w3.org/Graphics/SVG/1.1/DTD/svg11.dtd">
<svg xmlns="http://www.w3.org/2000/svg" version="1.1" width="512px" height="512px" style="shape-rendering:geometricPrecision; text-rendering:geometricPrecision; image-rendering:optimizeQuality; fill-rule:evenodd; clip-rule:evenodd" xmlns:xlink="http://www.w3.org/1999/xlink">
<g><path style="opacity:0.974" fill="#fff" d="M 55.5,-0.5 C 173.167,-0.5 290.833,-0.5 408.5,-0.5C 408.5,84.5 408.5,169.5 408.5,254.5C 457.029,266.526 489.529,296.192 506,343.5C 508.387,352.193 510.22,360.86 511.5,369.5C 511.5,377.5 511.5,385.5 511.5,393.5C 503.084,449.093 472.417,486.593 419.5,506C 411.442,508.174 403.442,510.008 395.5,511.5C 282.167,511.5 168.833,511.5 55.5,511.5C 24.3013,504.301 5.63467,484.968 -0.5,453.5C -0.5,321.5 -0.5,189.5 -0.5,57.5C 5.63467,26.0325 24.3013,6.69917 55.5,-0.5 Z M 65.5,29.5 C 73.8333,29.5 82.1667,29.5 90.5,29.5C 90.5,143.167 90.5,256.833 90.5,370.5C 69.6619,367.554 50.1619,371.221 32,381.5C 31.3333,273.833 31.3333,166.167 32,58.5C 36.8897,41.4356 48.0563,31.7689 65.5,29.5 Z M 121.5,29.5 C 206.833,29.5 292.167,29.5 377.5,29.5C 377.5,103.5 377.5,177.5 377.5,251.5C 326.106,255.094 288.273,279.427 264,324.5C 257.025,339.067 252.858,354.4 251.5,370.5C 208.167,370.5 164.833,370.5 121.5,370.5C 121.5,256.833 121.5,143.167 121.5,29.5 Z M 371.5,282.5 C 424.342,281.538 459.509,305.871 477,355.5C 487.499,408.997 468.666,448.164 420.5,473C 376.561,488.973 338.394,480.14 306,446.5C 280.393,414.18 275.393,378.846 291,340.5C 307.665,307.082 334.498,287.748 371.5,282.5 Z M 63.5,401.5 C 126.5,401.5 189.5,401.5 252.5,401.5C 253.716,409.363 255.716,417.03 258.5,424.5C 197.837,425.5 137.17,425.833 76.5,425.5C 76.5,435.5 76.5,445.5 76.5,455.5C 142.503,455.167 208.503,455.5 274.5,456.5C 280.907,465.412 288.241,473.579 296.5,481C 220.833,481.667 145.167,481.667 69.5,481C 48.8708,478.699 36.0375,467.533 31,447.5C 29.8026,423.533 40.6359,408.2 63.5,401.5 Z"/></g>
<g><path style="opacity:0.959" fill="#fff" d="M 200.5,87.5 C 234.167,87.5 267.833,87.5 301.5,87.5C 301.5,97.8333 301.5,108.167 301.5,118.5C 267.833,118.5 234.167,118.5 200.5,118.5C 200.5,108.167 200.5,97.8333 200.5,87.5 Z"/></g>
<g><path style="opacity:0.96" fill="#fff" d="M 166.5,152.5 C 222.833,152.5 279.167,152.5 335.5,152.5C 335.5,162.833 335.5,173.167 335.5,183.5C 279.167,183.5 222.833,183.5 166.5,183.5C 166.5,173.167 166.5,162.833 166.5,152.5 Z"/></g>
<g><path style="opacity:0.963" fill="#fff" d="M 365.5,335.5 C 375.833,335.5 386.167,335.5 396.5,335.5C 396.5,345.833 396.5,356.167 396.5,366.5C 406.833,366.5 417.167,366.5 427.5,366.5C 427.5,376.833 427.5,387.167 427.5,397.5C 417.167,397.5 406.833,397.5 396.5,397.5C 396.5,407.5 396.5,417.5 396.5,427.5C 386.167,427.5 375.833,427.5 365.5,427.5C 365.5,417.5 365.5,407.5 365.5,397.5C 355.5,397.5 345.5,397.5 335.5,397.5C 335.5,387.167 335.5,376.833 335.5,366.5C 345.5,366.5 355.5,366.5 365.5,366.5C 365.5,356.167 365.5,345.833 365.5,335.5 Z"/></g>
</svg>
