<?xml version="1.0" encoding="UTF-8"?>
<svg xmlns="http://www.w3.org/2000/svg" version="1.1" width="512px" height="512px"
     style="shape-rendering:geometricPrecision; text-rendering:geometricPrecision; image-rendering:optimizeQuality;
     fill-rule:evenodd; clip-rule:evenodd">
    <g>
        <path style="opacity:0.992" fill="#fff" d="M 67.5,15.5 C 132.168,15.3333 196.834,15.5 261.5,16C 270.482,20.4731
        273.649,27.6397 271,37.5C 269.167,42 266,45.1667 261.5,47C 198.473,47.0257 135.473,47.6924 72.5,49C
        61.6028,51.5629 54.1028,58.0629 50,68.5C 49.0551,72.1141 48.3884,75.7808 48,79.5C 47.3333,196.833
        47.3333,314.167 48,431.5C 49.8333,450.667 60.3333,461.167 79.5,463C 140.167,463.333 200.833,463.667 261.5,464C
        268.487,466.807 271.82,471.973 271.5,479.5C 271.82,487.027 268.487,492.193 261.5,495C 197.167,495.667
        132.833,495.667 68.5,495C 40.1171,488.951 22.6171,471.784 16,443.5C 15.3333,318.167 15.3333,192.833 16,67.5C
        22.6811,39.6527 39.8478,22.3193 67.5,15.5 Z"/>
    </g>
    <g>
        <path style="opacity:0.964" fill="#fff" d="M 163.5,127.5 C 197.466,124.224 221.632,137.891 236,168.5C
        245.302,198.811 237.802,223.977 213.5,244C 194.476,256.158 174.142,258.824 152.5,252C 121.736,237.652
        108.236,213.486 112,179.5C 118.681,151.653 135.848,134.319 163.5,127.5 Z M 168.5,160.5 C 185.58,158.452
        197.746,165.119 205,180.5C 209.771,199.119 203.604,212.619 186.5,221C 167.881,225.771 154.381,219.604
        146,202.5C 141.236,181.685 148.736,167.685 168.5,160.5 Z"/>
    </g>
    <g>
        <path style="opacity:0.98" fill="#fff" d="M 377.5,143.5 C 383.105,142.908 388.439,143.741 393.5,146C
        426.667,179.167 459.833,212.333 493,245.5C 496.333,252.167 496.333,258.833 493,265.5C 459.833,298.667
        426.667,331.833 393.5,365C 386.833,368.333 380.167,368.333 373.5,365C 370.894,363.062 369.061,360.562
        368,357.5C 367.5,339.503 367.333,321.503 367.5,303.5C 349.497,303.667 331.497,303.5 313.5,303C 309,301.167
        305.833,298 304,293.5C 303.333,268.167 303.333,242.833 304,217.5C 305.833,213 309,209.833 313.5,208C
        331.497,207.5 349.497,207.333 367.5,207.5C 367.333,189.497 367.5,171.497 368,153.5C 370.022,148.98
        373.189,145.647 377.5,143.5 Z M 399.5,199.5 C 418.132,217.632 436.632,235.965 455,254.5C 455.667,255.167
        455.667,255.833 455,256.5C 436.667,274.833 418.333,293.167 400,311.5C 399.667,301.5 399.333,291.5
        399,281.5C 397.167,277 394,273.833 389.5,272C 371.503,271.5 353.503,271.333 335.5,271.5C 335.5,260.833
        335.5,250.167 335.5,239.5C 353.503,239.667 371.503,239.5 389.5,239C 394,237.167 397.167,234 399,229.5C
        399.5,219.506 399.666,209.506 399.5,199.5 Z"/>
    </g>
    <g>
        <path style="opacity:0.978" fill="#fff" d="M 118.5,274.5 C 121.85,274.335 125.183,274.502 128.5,275C
        159.833,290.333 191.167,290.333 222.5,275C 228.304,273.776 233.638,274.776 238.5,278C 267.602,305.309
        277.769,338.476 269,377.5C 267.062,380.106 264.562,381.939 261.5,383C 204.167,383.667 146.833,383.667
        89.5,383C 85,381.167 81.8333,378 80,373.5C 74.1303,335.772 84.9637,303.938 112.5,278C 114.432,276.541
        116.432,275.375 118.5,274.5 Z M 126.5,310.5 C 158.834,322.478 191.167,322.478 223.5,310.5C 233.822,322.158
        238.822,335.824 238.5,351.5C 196.5,351.5 154.5,351.5 112.5,351.5C 112.063,343.914 113.229,336.581 116,329.5C
        119.003,322.822 122.503,316.489 126.5,310.5 Z"/>
    </g>
</svg>
